<?xml version="1.0" encoding="UTF-8" standalone="no"?>
<!-- Generator: Adobe Illustrator 16.0.0, SVG Export Plug-In . SVG Version: 6.00 Build 0)  -->

<svg
   version="1.1"
   id="Layer_1"
   x="0px"
   y="0px"
   width="512"
   height="512"
   viewBox="0 0 511.99999 511.99999"
   enable-background="new 0 0 1190.551 841.89"
   xml:space="preserve"
   xmlns="http://www.w3.org/2000/svg"
   xmlns:svg="http://www.w3.org/2000/svg"><defs
   id="defs25" />










<polygon
   fill-rule="evenodd"
   clip-rule="evenodd"
   fill="#0f3b5f"
   points="716.393,503.724 604.254,568.468 492.119,503.724 379.98,438.982 379.98,309.489 379.98,278.234 624.661,419.501 603.079,431.963 423.302,328.179 423.302,413.967 513.779,466.206 604.254,518.442 694.732,466.206 776.511,418.982 379.98,190.037 358.614,177.707 358.614,265.905 358.614,309.489 358.614,451.313 481.431,522.221 604.254,593.137 727.07,522.221 841.211,456.33 819.845,444 "
   id="polygon2"
   transform="matrix(0.88341396,0,0,0.88341396,-277.63857,-17.517773)"
   style="fill:#05a551;fill-opacity:1" /><polygon
   fill-rule="evenodd"
   clip-rule="evenodd"
   fill="#a5cd39"
   points="491.735,115.507 603.874,50.77 716.009,115.507 828.147,180.248 828.147,309.73 828.147,340.994 583.466,199.729 605.05,187.265 784.828,291.051 784.828,205.262 694.349,153.024 603.874,100.786 513.395,153.024 431.618,200.248 828.147,429.192 849.514,441.522 849.514,353.325 849.514,309.73 849.514,167.917 726.697,97.008 603.874,26.092 481.058,97.008 366.919,162.898 388.285,175.229 "
   id="polygon4"
   transform="matrix(0.88341396,0,0,0.88341396,-277.63857,-17.517773)"
   style="fill:#06aeef;fill-opacity:1" /><path
   fill-rule="evenodd"
   clip-rule="evenodd"
   fill="#a5cd39"
   d="m 256.16784,342.66424 18.0296,10.41545 -18.0296,10.4075 v 76.99306 l 79.92777,-46.14955 72.24647,-41.71569 h 0.006 L 256.16784,264.75066 Z m 0,163.8035 v -21.79559 l 99.06516,-57.19929 91.39094,-52.7566 18.87503,10.89338 -100.82757,58.21521 z"
   id="path6"
   style="stroke-width:0.883414;fill:#a6ce39;fill-opacity:1" /><path
   fill-rule="evenodd"
   clip-rule="evenodd"
   fill="#0f3b5f"
   d="m 453.95805,283.72286 -123.10109,-71.07065 -67.47604,38.95237 190.57713,110.03186 18.87502,10.89249 V 294.61447 256.10204 130.82245 l -0.12191,-0.0689 -18.87414,10.89426 0.12103,0.0689 v 114.38533 z m -104.02907,-82.08418 65.63589,-37.88962 0.12103,0.0671 v 75.78455 z"
   id="path8"
   style="stroke-width:0.883414;fill:#0076bf;fill-opacity:1" /></svg>
